<svg width="22" height="21" viewBox="0 0 22 21" fill="none" xmlns="http://www.w3.org/2000/svg">
<path id="Vector" d="M21.425 8.12075C21.3342 7.8408 21.163 7.59375 20.9328 7.41038C20.7026 7.22701 20.4235 7.11542 20.1303 7.0895L14.5625 6.6095L12.38 1.4195C12.2664 1.14717 12.0747 0.914551 11.8291 0.750929C11.5836 0.587308 11.2951 0.5 11 0.5C10.7049 0.5 10.4164 0.587308 10.1709 0.750929C9.9253 0.914551 9.73364 1.14717 9.62001 1.4195L7.44407 6.6095L1.8697 7.09231C1.57535 7.11705 1.29487 7.22813 1.06341 7.41164C0.831947 7.59515 0.659819 7.84291 0.568607 8.12385C0.477396 8.4048 0.471161 8.70642 0.550686 8.99089C0.630211 9.27536 0.791954 9.53002 1.01563 9.72294L5.2447 13.4186L3.9772 18.9067C3.91017 19.1939 3.9293 19.4945 4.03218 19.7709C4.13506 20.0472 4.31713 20.2872 4.55563 20.4606C4.79413 20.6341 5.07847 20.7334 5.37311 20.7462C5.66775 20.7589 5.95961 20.6845 6.2122 20.5323L10.9934 17.6261L15.785 20.5323C16.0376 20.6845 16.3295 20.7589 16.6241 20.7462C16.9187 20.7334 17.2031 20.6341 17.4416 20.4606C17.6801 20.2872 17.8621 20.0472 17.965 19.7709C18.0679 19.4945 18.087 19.1939 18.02 18.9067L16.7534 13.4129L20.9816 9.72294C21.2052 9.52936 21.3666 9.27397 21.4455 8.98889C21.5244 8.70382 21.5173 8.40178 21.425 8.12075ZM19.9981 8.5895L15.77 12.2795C15.5642 12.4585 15.4111 12.6902 15.3272 12.9497C15.2433 13.2092 15.2317 13.4867 15.2938 13.7523L16.5641 19.2498L11.7763 16.3436C11.5427 16.2013 11.2744 16.1261 11.0009 16.1261C10.7274 16.1261 10.4592 16.2013 10.2256 16.3436L5.44438 19.2498L6.70626 13.7561C6.76827 13.4905 6.7567 13.213 6.67279 12.9535C6.58887 12.694 6.43579 12.4623 6.23001 12.2833L2.00001 8.59513C1.99967 8.59232 1.99967 8.58949 2.00001 8.58669L7.57251 8.10481C7.84457 8.08083 8.10493 7.98303 8.32549 7.82194C8.54605 7.66086 8.71844 7.44262 8.82407 7.19075L11 2.00731L13.175 7.19075C13.2806 7.44262 13.453 7.66086 13.6736 7.82194C13.8942 7.98303 14.1545 8.08083 14.4266 8.10481L20 8.58669V8.59325L19.9981 8.5895Z" fill="#5D5E61"/>
</svg>
